<svg xmlns="http://www.w3.org/2000/svg" xmlns:xlink="http://www.w3.org/1999/xlink" width="1024" zoomAndPan="magnify" viewBox="0 0 768 576" height="768" preserveAspectRatio="xMidYMid meet" version="1.0"><defs><clipPath id="24739b76a3"><path d="M 469 125 L 658.976562 125 L 658.976562 239 L 469 239 Z M 469 125 " clip-rule="nonzero"/></clipPath><clipPath id="8aad85d1b9"><path d="M 204 316 L 560 316 L 560 480.816406 L 204 480.816406 Z M 204 316 " clip-rule="nonzero"/></clipPath></defs><path fill="#e51635" d="M 258.1875 211.757812 C 262.921875 222.203125 263.929688 236.914062 276.046875 241.636719 C 288.371094 246.679688 302.742188 234.773438 299.820312 221.691406 C 285.472656 143.167969 198.691406 95.554688 143.410156 168.347656 C 132.140625 187.769531 109.25 215.371094 122.558594 237.878906 C 149.015625 260.644531 157.453125 201.429688 173.582031 188.574219 C 200.683594 151.484375 246.703125 173.476562 258.1875 211.757812 Z M 258.1875 211.757812 " fill-opacity="1" fill-rule="nonzero"/><g clip-path="url(#24739b76a3)"><path fill="#e51635" d="M 553.839844 127.121094 C 511.121094 136 456.234375 181.394531 472.554688 228.996094 C 478.398438 238.75 494.222656 238.183594 499.125 227.898438 C 502.828125 219.132812 503.089844 209.121094 508.890625 201.078125 C 542.550781 149.796875 595.398438 149.433594 618.511719 209.515625 C 621.84375 217.105469 622.535156 225.972656 628.265625 232.351562 C 637.574219 244.175781 657.734375 237.59375 658.753906 222.734375 C 654.542969 173.726562 607.480469 115.589844 553.839844 127.121094 Z M 553.839844 127.121094 " fill-opacity="1" fill-rule="nonzero"/></g><g clip-path="url(#8aad85d1b9)"><path fill="#e51635" d="M 545.9375 317.046875 C 536.605469 314.464844 525.652344 320.09375 523.363281 329.832031 C 521.96875 335.8125 520.203125 341.714844 518.222656 347.546875 C 516.160156 353.246094 513.871094 358.863281 511.265625 364.332031 C 508.300781 370.039062 504.992188 375.558594 501.425781 380.925781 C 497.734375 386.214844 493.8125 391.3125 489.601562 396.171875 C 485.476562 400.65625 481.152344 404.925781 476.597656 408.980469 C 471.332031 413.429688 465.839844 417.585938 460.152344 421.472656 C 455.101562 424.769531 449.902344 427.792969 444.535156 430.542969 C 439.097656 433.183594 433.558594 435.515625 427.863281 437.53125 C 421.429688 439.664062 414.917969 441.472656 408.289062 442.914062 C 402.355469 444.046875 396.398438 444.839844 390.382812 445.324219 C 383.566406 445.710938 376.746094 445.664062 369.941406 445.269531 C 363.429688 444.746094 356.960938 443.898438 350.550781 442.664062 C 343.742188 441.203125 337.074219 439.324219 330.480469 437.078125 C 324.5 434.917969 318.679688 432.4375 312.972656 429.617188 C 306.785156 426.421875 300.773438 422.96875 294.984375 419.09375 C 290.285156 415.796875 285.753906 412.253906 281.4375 408.480469 C 276.183594 403.726562 271.074219 398.730469 266.375 393.429688 C 262.09375 388.390625 258.175781 383.078125 254.449219 377.605469 C 251.1875 372.644531 248.152344 367.5625 245.457031 362.28125 C 242.671875 356.472656 240.304688 350.46875 237.914062 344.488281 C 237.019531 342.234375 236.191406 339.949219 235.25 337.707031 C 232.761719 331.667969 228.171875 327.523438 221.660156 326.367188 C 212.464844 324.726562 203.914062 333.480469 204.273438 342.460938 C 204.386719 345.578125 205.023438 348.578125 205.804688 351.578125 C 207.570312 358.421875 209.972656 365.148438 212.871094 371.605469 C 218.613281 384.425781 225.351562 396.90625 233.902344 408.085938 C 239.996094 416.023438 246.476562 423.726562 253.78125 430.589844 C 260.824219 437.214844 268.347656 443.253906 276.296875 448.710938 C 295.640625 461.972656 317.332031 471.464844 340.300781 476.371094 C 347.921875 477.988281 355.613281 479.144531 363.347656 479.824219 C 369.035156 480.324219 374.753906 480.550781 380.472656 480.503906 C 393.613281 480.402344 406.695312 478.75 419.539062 476.019531 C 431.554688 473.449219 443.4375 469.507812 454.636719 464.476562 C 466.132812 459.335938 477.367188 453.265625 487.527344 445.777344 C 506.917969 431.53125 523.691406 413.578125 536.285156 393.054688 C 546.445312 376.507812 554.328125 358.546875 558.746094 339.621094 C 559.878906 334.792969 559.460938 329.914062 556.945312 325.550781 C 554.53125 321.40625 550.546875 318.316406 545.9375 317.046875 Z M 545.9375 317.046875 " fill-opacity="1" fill-rule="nonzero"/></g></svg>